<svg width="395" height="123" viewBox="0 0 395 123" fill="none" xmlns="http://www.w3.org/2000/svg">
<path d="M97.912 51.088V77.872C97.912 82 98.68 85.84 101.944 89.296C107.032 94.768 114.904 95.44 121.336 95.44C127.192 95.44 134.584 94.864 139.864 89.392C143.704 85.456 143.992 81.52 143.992 77.872V51.088H128.632V75.088C128.632 77.008 128.344 79.216 126.424 81.136C124.696 82.768 122.872 82.96 120.952 82.96C119.128 82.96 117.112 82.672 115.576 81.328C113.56 79.504 113.272 76.816 113.272 75.088V51.088H97.912ZM203.113 24.016H187.753V55.216C184.969 52.24 180.841 49.648 174.985 49.648C169.705 49.648 164.041 51.376 159.817 55.408C155.881 59.152 152.809 65.104 152.809 72.4C152.809 79.216 155.401 85.264 159.721 89.488C163.753 93.424 168.649 95.44 174.793 95.44C177.769 95.44 183.433 94.864 187.753 89.296V94H203.113V24.016ZM178.345 82.384C176.137 82.384 173.641 81.616 171.529 79.504C169.513 77.488 168.553 74.992 168.553 72.784C168.553 69.904 169.801 67.216 171.529 65.488C172.873 64.144 175.081 62.704 178.345 62.704C181.225 62.704 183.625 63.76 185.353 65.584C186.889 67.216 188.233 70.096 188.233 72.496C188.233 75.088 186.985 77.968 184.969 79.792C183.337 81.232 180.841 82.384 178.345 82.384ZM240.957 63.664V51.088H230.205V45.04C230.205 42.928 230.301 39.664 231.933 37.84C232.605 37.072 233.949 36.208 236.253 36.208C237.117 36.208 238.941 36.4 241.053 37.648V24.4C238.845 23.536 236.541 22.96 233.661 22.96C228.573 22.96 222.717 24.496 218.781 29.776C215.325 34.384 214.845 39.28 214.845 43.888V51.088H209.469V63.664H214.845V94H230.205V63.664H240.957ZM270.883 62.704C273.283 62.704 275.971 63.856 277.699 65.488C279.619 67.408 280.675 70.192 280.675 72.496C280.675 74.992 279.619 77.488 277.699 79.312C275.875 81.136 273.379 82.192 270.883 82.192C268.291 82.192 265.795 81.136 263.971 79.312C262.243 77.584 260.995 75.088 260.995 72.496C260.995 70 262.051 67.312 263.971 65.488C265.699 63.856 268.387 62.704 270.883 62.704ZM296.611 72.496C296.611 64.816 293.155 59.824 289.987 56.752C286.435 53.392 280.291 49.648 270.787 49.648C261.475 49.648 255.235 53.296 251.683 56.752C248.515 59.824 245.059 64.816 245.059 72.496C245.059 78.256 246.979 83.728 251.683 88.336C257.635 94.192 264.547 95.44 270.787 95.44C277.699 95.44 284.323 93.904 289.987 88.336C294.691 83.728 296.611 78.256 296.611 72.496ZM305.475 94H320.835V75.664C320.835 73.36 321.027 68.848 324.291 65.872C326.499 63.856 329.283 63.568 331.299 63.568C335.043 63.568 337.155 64.72 337.923 65.104V50.608C335.907 50.512 335.235 50.416 334.851 50.416C331.971 50.416 329.187 50.896 326.883 52.144C324.579 53.296 322.371 55.216 320.835 58.096V51.088H305.475V94ZM390.26 73.744C390.26 68.944 389.492 61.456 383.444 55.696C378.356 50.896 371.924 49.84 366.932 49.84C358.484 49.84 352.916 52.624 349.364 56.08C345.62 59.728 342.932 65.488 342.932 72.688C342.932 80.848 346.484 86.128 349.268 88.912C354.548 94.192 361.364 95.44 367.028 95.44C376.34 95.44 381.332 92.56 384.5 89.488C387.668 86.416 389.012 83.056 389.684 80.656H374.996C374.324 82 373.268 82.96 372.308 83.536C370.388 84.592 367.7 84.688 367.316 84.688C363.86 84.688 361.94 83.536 360.98 82.576C359.156 80.752 358.292 77.68 358.292 75.376H390.26V73.744ZM358.772 66.544C359.06 64.624 360.02 63.088 361.076 61.936C362.708 60.304 364.724 59.632 367.316 59.632C368.852 59.632 371.636 59.92 373.652 61.936C374.804 63.088 375.764 64.912 376.148 66.544H358.772Z" fill="black"/>
<path d="M0 105.032H12.48L61.632 17H49.056L0 105.032Z" fill="#00FF66"/>
<path d="M31 105.032H43.48L92.632 17H80.056L31 105.032Z" fill="#00FF66"/>
</svg>
